<?xml version="1.0" encoding="UTF-8"?><svg id="Layer_1" xmlns="http://www.w3.org/2000/svg" viewBox="0 0 283.97 145.89"><defs><style>.cls-1{stroke-width:0px;}</style></defs><path class="cls-1" d="m152.11,94.95c-.33,8.07-.46,16.15-1.05,24.19-.59,8.08-4.14,14.71-11.82,18.02-10.91,4.7-23.03-.76-23.82-13.69-.72-11.63-1-23.28-1.57-34.92-.13-2.65-.54-5.29-.94-7.92-.38-2.51-1.35-4.76-4.16-5.29-2.87-.55-5.01.85-6.5,3.2-2.8,4.38-4.09,9.2-4.33,14.39-.45,9.73-.84,19.46-1.6,29.16-.45,5.74-2.32,11.16-6.88,15.04-5.5,4.67-11.83,4.64-18.05,1.82-6.03-2.73-9.31-7.75-9.39-14.41-.1-8.91.2-17.82.2-26.72,0-4.91-.08-9.83-.53-14.71-.19-2.06-1.14-4.18-2.2-6.01-3.36-5.8-10.47-5.77-13.53.2-1.19,2.33-1.79,5.26-1.72,7.89.21,7.22.95,14.41,1.42,21.62.45,6.97,1.25,14-1.58,20.68-2.78,6.56-7.89,10.3-14.92,11.37-7.07,1.08-12.77-1.41-17.16-6.91-2.24-2.81-2.44-6.31-2.52-9.73-.43-16.98-.84-33.96-1.16-50.94-.11-5.89-.13-11.8.13-17.68.1-2.27.89-4.59,1.75-6.72,2.24-5.51,6.49-8.66,12.42-8.85,3.7-.12,7.51.21,11.13,1.01,5.41,1.2,10.75,1.51,16-.18,11.15-3.59,21.47-1.02,31.64,3.65,4.09,1.88,8.33,3.69,12.92,1.67,2.66-1.17,5.28-2.47,7.76-3.98,10.25-6.23,20.45-5.17,30.2.74,12.45,7.55,17.84,19.57,19.06,33.54.59,6.77.1,13.64.1,20.47h.69Z"/><path class="cls-1" d="m224.55,138.73c-8.43-.11-14.52-5.36-18.11-14.07-5.46-13.26-11.22-26.4-16.28-39.81-3.21-8.5-5.52-17.34-7.94-26.11-.71-2.58-.58-5.44-.55-8.16.09-7.95,7.38-12.24,13.65-12.47,9.9-.37,16.81,4.39,21.27,12.93,2.6,4.99,4.87,10.15,7.3,15.22.25.52.56,1.02.89,1.5,1.68,2.5,3.05,2.52,4.61-.06,2.99-4.97,5.88-9.99,8.84-14.97,3.6-6.06,8.02-11.25,15.11-13.32,4.73-1.38,9.38-1.23,13.67,1.57,5.48,3.58,6.45,8.94,5.07,14.71-2.26,9.46-5.17,18.77-7.41,28.23-3.27,13.82-8.9,26.77-14.52,39.69-4.42,10.17-14.34,15.82-25.6,15.12Z"/><path class="cls-1" d="m186.92,72.21c-.32,14.64-.6,29.28-.98,43.92-.14,5.38-1.64,10.42-3.97,15.31-4.47,9.34-18.51,14.18-27.33,2.91-2.12-2.71-2.67-5.87-2.85-9.12-.92-16.44-1.9-32.87-2.61-49.31-.22-4.96.51-9.96.49-14.94-.03-7.48-.39-14.95-.53-22.43-.12-6.28.62-12.37,3.18-18.25,3.68-8.47,14.08-12.54,22.53-8.87,8.63,3.74,11.15,10.89,11.25,19.34.16,13.81.04,27.63.04,41.44.26,0,.53,0,.79,0Z"/><path class="cls-1" d="m283.95,116.47c.43,8.7-6.12,15.57-15.2,15.93-9.63.38-17.23-6.11-17.35-15.26-.11-8.31,5.68-16.74,15.53-17.11,9.67-.36,16.52,6.18,17.03,16.45Z"/></svg>